<svg width="18" height="18" viewBox="0 0 18 18" fill="none" xmlns="http://www.w3.org/2000/svg">
<path fill-rule="evenodd" clip-rule="evenodd" d="M14.002 10.6671H3.99784C3.07662 10.6671 2.33047 9.92099 2.33047 8.99977V3.164C2.33047 2.24279 3.07662 1.49664 3.99784 1.49664H14.002C14.9232 1.49664 15.6694 2.24279 15.6694 3.164V8.99977C15.6694 9.92099 14.9232 10.6671 14.002 10.6671Z" stroke="#595959" stroke-width="1.5" stroke-linecap="round" stroke-linejoin="round"/>
<path fill-rule="evenodd" clip-rule="evenodd" d="M14.1204 10.6674H3.87945C3.13497 10.6674 2.48053 11.1609 2.27628 11.8771L1.56181 14.3781C1.25752 15.4427 2.05702 16.5032 3.16498 16.5032H14.8348C15.9428 16.5032 16.7423 15.4427 16.438 14.3781L15.7235 11.8771C15.5185 11.1609 14.8649 10.6674 14.1204 10.6674Z" stroke="#595959" stroke-width="1.5" stroke-linecap="round" stroke-linejoin="round"/>
<path d="M7.33255 14.0019H10.6673" stroke="#595959" stroke-width="1.5" stroke-linecap="round" stroke-linejoin="round"/>
</svg>
