<svg width="48" height="48" viewBox="0 0 48 48" fill="none" xmlns="http://www.w3.org/2000/svg">
<rect width="48" height="48" rx="24" fill="#FBFBFB"/>
<g clip-path="url(#clip0_1_3459)">
<path d="M24 36C30.6274 36 36 30.6274 36 24C36 17.3726 30.6274 12 24 12C17.3726 12 12 17.3726 12 24C12 30.6274 17.3726 36 24 36Z" fill="#F0F0F0"/>
<path d="M35.8984 22.4348H25.5653H25.5653V12.1016C25.0529 12.0349 24.5305 12 24 12C23.4695 12 22.9471 12.0349 22.4348 12.1016V22.4347V22.4347H12.1016C12.0349 22.9471 12 23.4694 12 24C12 24.5306 12.0349 25.0529 12.1016 25.5652H22.4347H22.4347V35.8984C22.9471 35.9651 23.4695 36 24 36C24.5305 36 25.0529 35.9652 25.5652 35.8984V25.5653V25.5653H35.8984C35.9651 25.0529 36 24.5306 36 24C36 23.4694 35.9651 22.9471 35.8984 22.4348Z" fill="#D80027"/>
</g>
<defs>
<clipPath id="clip0_1_3459">
<rect width="24" height="24" fill="white" transform="translate(12 12)"/>
</clipPath>
</defs>
</svg>
