<svg width="19" height="18" viewBox="0 0 19 18" fill="none" xmlns="http://www.w3.org/2000/svg">
<path d="M6.59099 3.65901C7.46967 4.53769 7.46967 5.96231 6.59099 6.84099C5.71231 7.71967 4.28769 7.71967 3.40901 6.84099C2.53033 5.96231 2.53033 4.53769 3.40901 3.65901C4.28769 2.78033 5.71231 2.78033 6.59099 3.65901" stroke="#242429" stroke-width="1.3" stroke-linecap="round" stroke-linejoin="round"/>
<path d="M15.5 5.25H7.25" stroke="#242429" stroke-width="1.3" stroke-linecap="round" stroke-linejoin="round"/>
<path d="M15.591 11.159C16.4697 12.0377 16.4697 13.4623 15.591 14.341C14.7123 15.2197 13.2877 15.2197 12.409 14.341C11.5303 13.4623 11.5303 12.0377 12.409 11.159C13.2877 10.2803 14.7123 10.2803 15.591 11.159" stroke="#242429" stroke-width="1.3" stroke-linecap="round" stroke-linejoin="round"/>
<path d="M3.5 12.75H11.75" stroke="#242429" stroke-width="1.3" stroke-linecap="round" stroke-linejoin="round"/>
</svg>
