<svg width="15" height="14" viewBox="0 0 15 14" fill="none" xmlns="http://www.w3.org/2000/svg">
<path d="M4.59099 1.65901C5.46967 2.53769 5.46967 3.96231 4.59099 4.84099C3.71231 5.71967 2.28769 5.71967 1.40901 4.84099C0.530331 3.96231 0.530331 2.53769 1.40901 1.65901C2.28769 0.780331 3.71231 0.780331 4.59099 1.65901" stroke="white" stroke-width="1.3" stroke-linecap="round" stroke-linejoin="round"/>
<path d="M13.5 3.25H5.25" stroke="white" stroke-width="1.3" stroke-linecap="round" stroke-linejoin="round"/>
<path d="M13.591 9.15901C14.4697 10.0377 14.4697 11.4623 13.591 12.341C12.7123 13.2197 11.2877 13.2197 10.409 12.341C9.53033 11.4623 9.53033 10.0377 10.409 9.15901C11.2877 8.28033 12.7123 8.28033 13.591 9.15901" stroke="white" stroke-width="1.3" stroke-linecap="round" stroke-linejoin="round"/>
<path d="M1.5 10.75H9.75" stroke="white" stroke-width="1.3" stroke-linecap="round" stroke-linejoin="round"/>
</svg>
