<svg width="48" height="48" viewBox="0 0 48 48" fill="none" xmlns="http://www.w3.org/2000/svg">
<path d="M48 24C48 25.701 47.8233 27.3611 47.4857 28.9619C47.4192 29.2795 47.3462 29.5957 47.2668 29.909C47.0873 30.6171 46.8763 31.3131 46.636 31.9948C46.3956 32.675 46.126 33.3402 45.8277 33.9897C45.626 34.431 45.4107 34.8645 45.1832 35.2901C45.1747 35.3058 45.1661 35.3223 45.1568 35.338C45.1468 35.3559 45.1375 35.3745 45.1275 35.3924C45.0638 35.5104 44.9994 35.627 44.9343 35.7436C44.8177 35.951 44.6976 36.157 44.5745 36.3609C44.297 36.8222 44.0038 37.2743 43.6955 37.7149C43.6526 37.7778 43.6075 37.8408 43.5631 37.9037C43.4058 38.124 43.2448 38.3422 43.0803 38.5575C43.0374 38.6147 42.9938 38.6712 42.9494 38.7277C42.9194 38.7671 42.8894 38.805 42.8593 38.8429C42.8214 38.8908 42.7842 38.938 42.7456 38.9852C42.6848 39.0618 42.6233 39.1376 42.561 39.2134C42.4158 39.3908 42.2678 39.5661 42.1176 39.7392C42.0668 39.7978 42.0153 39.8565 41.9631 39.9151C41.9037 39.9824 41.8436 40.0496 41.7821 40.1161C41.6112 40.3057 41.4359 40.4931 41.2578 40.6769C40.8687 41.0803 40.4653 41.4702 40.0476 41.8457C39.9546 41.9294 39.8602 42.0131 39.7658 42.0953C39.5698 42.2663 39.3716 42.4336 39.1706 42.5967C38.9983 42.7384 38.8244 42.8764 38.6485 43.0123C38.5927 43.0552 38.5369 43.0981 38.4804 43.1403C38.4325 43.1768 38.3853 43.2126 38.3373 43.2476C38.2737 43.2956 38.21 43.3428 38.1456 43.3893C38.1456 43.39 38.1449 43.39 38.1449 43.39C38.0212 43.4808 37.8967 43.5702 37.7708 43.6582C37.6757 43.7247 37.5799 43.7905 37.484 43.8556C37.1543 44.0802 36.8188 44.2962 36.4776 44.5044C36.3546 44.5795 36.2309 44.6539 36.1057 44.7268C36.0785 44.7426 36.052 44.7583 36.0249 44.7741C35.9791 44.8005 35.9326 44.827 35.8868 44.8527C35.5335 45.0559 35.1737 45.249 34.8089 45.4328C34.4083 45.636 34.0013 45.8277 33.5879 46.0079C33.4792 46.0559 33.3698 46.1023 33.2603 46.1481C33.1344 46.2003 33.0085 46.2518 32.8812 46.3026C32.7518 46.3548 32.6209 46.4056 32.49 46.455C32.4871 46.4564 32.485 46.4571 32.4828 46.4571C32.1431 46.5859 31.8004 46.7075 31.4535 46.8205C31.3326 46.8598 31.2118 46.8985 31.0902 46.9364C30.8112 47.0222 30.5301 47.103 30.2469 47.1789C30.2454 47.1796 30.244 47.1796 30.2433 47.1796C29.6968 47.3269 29.1432 47.455 28.5824 47.563C28.3371 47.6109 28.0903 47.6545 27.8421 47.6946C27.8357 47.6953 27.8292 47.6967 27.8228 47.6974C27.6154 47.7311 27.4072 47.7611 27.1984 47.789C27.1104 47.8004 27.0217 47.8119 26.933 47.8226C26.1512 47.9185 25.3572 47.9757 24.5533 47.9929C24.3694 47.9979 24.1856 48 24.0011 48C23.6728 48 23.3459 47.9936 23.0204 47.98C22.8616 47.9743 22.7028 47.9664 22.5448 47.9564C22.5176 47.9557 22.4904 47.9535 22.4632 47.9521C22.2808 47.9399 22.0984 47.927 21.9168 47.9106C21.7759 47.8984 21.6357 47.8848 21.4955 47.8705C21.4676 47.8677 21.4397 47.8648 21.4125 47.8612C20.9633 47.814 20.5177 47.7539 20.0764 47.681C19.9312 47.6574 19.7867 47.6323 19.6429 47.6059C19.4376 47.568 19.233 47.5279 19.0299 47.4843C18.8389 47.4442 18.6494 47.402 18.4605 47.357C18.4384 47.352 18.4169 47.3462 18.3947 47.3412C18.3425 47.3291 18.291 47.3162 18.2395 47.3033C18.2016 47.294 18.1644 47.2847 18.1272 47.2754C18.1144 47.2726 18.1022 47.269 18.0893 47.2661C18.0893 47.2661 18.0886 47.2661 18.0886 47.2654C18.03 47.2511 17.9713 47.2361 17.9126 47.2211C17.8468 47.2039 17.781 47.186 17.7152 47.1681C17.5121 47.113 17.3097 47.0558 17.1087 46.995C16.9957 46.9614 16.8834 46.9271 16.7711 46.8913C16.505 46.8076 16.2403 46.7189 15.9785 46.6259C15.4757 46.4478 14.9807 46.2533 14.4936 46.0423C14.44 46.0194 14.3863 45.9958 14.3334 45.9729C14.1582 45.8956 13.9836 45.8162 13.8105 45.7347C13.5545 45.6145 13.302 45.4908 13.0509 45.362C12.6246 45.1431 12.2055 44.9114 11.7949 44.6682C11.5717 44.5359 11.3514 44.4007 11.1333 44.2619C11.0582 44.214 10.9838 44.1661 10.9101 44.1174C10.7349 44.0037 10.5618 43.8871 10.3901 43.7684C10.026 43.5173 9.66981 43.2577 9.32147 42.9866C9.29715 42.9687 9.27283 42.9494 9.24851 42.9308C9.05754 42.782 8.8687 42.6303 8.68273 42.4758C8.64554 42.4451 8.60906 42.4143 8.57258 42.3836C8.37373 42.2162 8.17775 42.046 7.98534 41.8736C7.98033 41.8693 7.97532 41.8643 7.97032 41.86C7.82082 41.7255 7.67276 41.5896 7.52685 41.4516C7.41097 41.3421 7.29581 41.2312 7.18208 41.1189C7.15705 41.0953 7.13273 41.071 7.10841 41.0467C6.93746 40.8772 6.76937 40.7055 6.60342 40.531C6.36023 40.2756 6.12347 40.0138 5.89244 39.7477C5.86598 39.7177 5.83951 39.6869 5.81376 39.6569C5.71791 39.546 5.62278 39.4344 5.5298 39.3214C5.32666 39.0789 5.12996 38.8322 4.93826 38.5811C4.89964 38.531 4.86173 38.481 4.82382 38.4309C4.78591 38.3808 4.74871 38.3308 4.71224 38.2807C4.37534 37.8272 4.0549 37.3623 3.75162 36.8852C3.6572 36.7371 3.56422 36.5883 3.47338 36.4381C3.23662 36.049 3.0106 35.6527 2.79673 35.2493C2.74022 35.1434 2.68443 35.0376 2.62935 34.931C1.86472 33.4375 1.25102 31.8531 0.810407 30.1987C0.281103 28.2209 0 26.143 0 24C0 22.804 0.0872636 21.6281 0.257499 20.4794C1.95986 8.89315 11.9415 0 24.0004 0C32.5543 0 40.0626 4.47483 44.3128 11.2114C46.6488 14.9137 48 19.2991 48 24Z" fill="#F4F2B7"/>
</svg>
