<svg width="41" height="40" viewBox="0 0 41 40" fill="none" xmlns="http://www.w3.org/2000/svg">
<path fill-rule="evenodd" clip-rule="evenodd" d="M20.6667 36.6667C29.8714 36.6667 37.3334 29.2048 37.3334 20C37.3334 10.7953 29.8714 3.33334 20.6667 3.33334C11.462 3.33334 4.00003 10.7953 4.00003 20C4.00003 29.2048 11.462 36.6667 20.6667 36.6667Z" fill="#F0F0F0"/>
<path fill-rule="evenodd" clip-rule="evenodd" d="M16.1167 10.9083H25.2167C27.7233 10.9083 29.7567 12.94 29.7567 15.45V24.55C29.7567 27.0567 27.725 29.09 25.215 29.09H16.1167C13.6083 29.09 11.575 27.0583 11.575 24.5483V15.45C11.575 12.9417 13.6083 10.9083 16.1167 10.9083Z" fill="#424244"/>
<path d="M25.6667 14.9167C25.62 14.9167 25.5833 14.955 25.5833 15C25.5833 15.045 25.62 15.0833 25.6667 15.0833C25.7133 15.0833 25.75 15.0467 25.75 15C25.75 14.955 25.7117 14.9167 25.6667 14.9167" stroke="white" stroke-width="1.25" stroke-linecap="round" stroke-linejoin="round"/>
<path d="M23.0238 17.6429C24.3254 18.9446 24.3254 21.0546 23.0238 22.3562C21.7221 23.6579 19.6121 23.6579 18.3104 22.3562C17.0088 21.0546 17.0088 18.9446 18.3104 17.6429C19.6121 16.3412 21.7221 16.3412 23.0238 17.6429" stroke="white" stroke-width="1.25" stroke-linecap="round" stroke-linejoin="round"/>
</svg>
