<svg width="12" height="12" viewBox="0 0 12 12" fill="none" xmlns="http://www.w3.org/2000/svg">
<path d="M0.545455 4.94303H2.18182V11.4885H0.545455C0.400791 11.4885 0.262052 11.431 0.15976 11.3287C0.0574673 11.2264 0 11.0877 0 10.943V5.48848C0 5.34382 0.0574673 5.20508 0.15976 5.10279C0.262052 5.00049 0.400791 4.94303 0.545455 4.94303ZM3.43255 4.23775L6.92345 0.746844C6.96985 0.700314 7.03149 0.672099 7.09703 0.667389C7.16257 0.662679 7.22761 0.68179 7.28018 0.721208L7.74545 1.0703C7.87467 1.16731 7.97228 1.3004 8.02596 1.4528C8.07964 1.6052 8.08699 1.77009 8.04709 1.92666L7.41818 4.39757H10.9091C11.1984 4.39757 11.4759 4.51251 11.6805 4.71709C11.8851 4.92168 12 5.19915 12 5.48848V6.63612C12.0001 6.77868 11.9723 6.91989 11.9182 7.05175L10.23 11.1508C10.1888 11.2508 10.1189 11.3362 10.029 11.3963C9.93921 11.4565 9.83354 11.4885 9.72545 11.4885H3.81818C3.67352 11.4885 3.53478 11.431 3.43249 11.3287C3.33019 11.2264 3.27273 11.0877 3.27273 10.943V4.62339C3.27276 4.47874 3.33025 4.34002 3.43255 4.23775Z" fill="#424244"/>
</svg>
