<svg width="40" height="40" viewBox="0 0 40 40" fill="none" xmlns="http://www.w3.org/2000/svg">
<path fill-rule="evenodd" clip-rule="evenodd" d="M31.7854 8.21459C38.2937 14.7229 38.2937 25.2763 31.7854 31.7846C25.2771 38.2929 14.7237 38.2929 8.21539 31.7846C1.70705 25.2763 1.70705 14.7229 8.21539 8.21459C14.7237 1.70626 25.2771 1.70626 31.7854 8.21459Z" fill="#F0F0F0"/>
<path d="M14.4149 17.6237V25.8054" stroke="#323232" stroke-width="1.25" stroke-linecap="round" stroke-linejoin="round"/>
<path d="M19.8665 25.8054V21.032C19.8665 19.1487 21.3915 17.6237 23.2749 17.6237V17.6237C25.1582 17.6237 26.6832 19.1487 26.6832 21.032V25.8054" stroke="#323232" stroke-width="1.25" stroke-linecap="round" stroke-linejoin="round"/>
<path d="M14.4116 12.6808C14.2233 12.6808 14.0699 12.8341 14.0716 13.0225C14.0716 13.2108 14.2249 13.3641 14.4133 13.3641C14.6016 13.3641 14.7549 13.2108 14.7549 13.0225C14.7533 12.8325 14.5999 12.6808 14.4116 12.6808" stroke="#323232" stroke-width="1.25" stroke-linecap="round" stroke-linejoin="round"/>
</svg>
