<svg width="92" height="40" viewBox="0 0 92 40" fill="none" xmlns="http://www.w3.org/2000/svg">
<path d="M5.72439 2.44077C8.23196 0.659641 11.3194 -0.246204 14.3372 0.0580603C17.3497 0.323423 20.2583 1.72387 22.4187 3.9607C24.8106 6.39898 26.2754 9.82368 26.4003 13.3345C26.4976 15.5575 25.8954 17.7318 25.1656 19.7921C23.6403 23.9421 21.4509 27.7725 19.1406 31.4792C17.2852 34.4107 15.3207 37.2686 13.209 40C10.4792 36.5169 7.94004 32.8616 5.66653 29.027C3.41275 25.1772 1.28388 21.137 0.301629 16.6925C-0.347946 13.6568 0.063626 10.3864 1.42063 7.62576C2.44496 5.5751 3.9019 3.74674 5.72439 2.44077ZM11.7704 2.47828C9.45221 2.77004 7.24313 3.90651 5.58895 5.64318C4.08993 7.19506 3.04062 9.22488 2.62642 11.4006C2.16751 13.7555 2.46074 16.2632 3.44562 18.4306C4.42261 20.6063 6.07679 22.4347 8.0952 23.5545C10.0715 24.6631 12.3858 25.0758 14.5975 24.7243C16.6435 24.4103 18.5896 23.4391 20.1255 21.9803C21.8507 20.3548 23.0512 18.1208 23.4746 15.72C23.8954 13.3887 23.5982 10.9185 22.6225 8.78029C21.6127 6.54902 19.8796 4.69565 17.7862 3.58974C15.9427 2.60471 13.8217 2.21152 11.7704 2.47828Z" fill="#1E692E"/>
<path d="M6.55933 8.75249C7.79668 7.12697 9.58761 6.1086 11.414 5.40698C10.8565 6.20029 10.1846 6.90051 9.67045 7.72856C8.60404 9.40409 8.40812 11.6242 9.04586 13.5124C9.61259 15.1448 10.7079 16.6022 12.1806 17.4122C13.5245 18.1486 15.1116 18.4542 16.6001 18.0999C17.6599 17.8526 18.633 17.2858 19.464 16.5592C19.9256 16.166 20.3463 15.7214 20.8263 15.3546C20.1215 17.472 18.9985 19.5434 17.2155 20.8411C15.6652 21.9942 13.6797 22.343 11.823 22.0943C9.79537 21.8233 7.94395 20.6091 6.66715 18.946C4.48437 16.0965 4.33579 11.6242 6.55933 8.75249Z" fill="#1E692E"/>
<path d="M15.3654 7.9134C15.8506 7.09925 16.1965 6.19202 16.6475 5.35425C17.0946 6.19202 17.4996 7.05757 17.9256 7.90923C18.8395 8.08012 19.7639 8.18015 20.6777 8.34965C20.0716 9.09433 19.3536 9.72926 18.7132 10.4406C18.8552 11.4215 19.0433 12.394 19.1708 13.3776C18.3214 12.9595 17.5009 12.4815 16.6672 12.0328C15.8257 12.451 15.0341 12.972 14.1859 13.3749C14.2819 12.3926 14.4936 11.4284 14.6225 10.4503C13.9755 9.74037 13.2642 9.09711 12.6422 8.36215C13.5456 8.18432 14.466 8.10652 15.3654 7.9134Z" fill="#1E692E"/>
<path d="M70.2005 21.9566C72.1124 21.5606 74.1545 21.9969 75.81 23.0667C75.4629 23.8447 75.1144 24.6227 74.7673 25.4021C73.8494 24.8547 72.8567 24.4171 71.8113 24.2434C71.3432 24.1837 70.783 24.1545 70.4175 24.5255C70.0638 24.9478 70.3465 25.5869 70.7817 25.8009C72.048 26.4775 73.5654 26.565 74.7331 27.4611C76.1848 28.5545 76.1716 31.0845 74.8435 32.2766C74.0085 33.0532 72.8646 33.3338 71.7784 33.3741C69.9559 33.4172 68.1111 32.7823 66.6936 31.5652C67.0513 30.8011 67.4089 30.0397 67.7679 29.277C68.8238 30.2134 70.1427 30.8872 71.5299 30.9803C72.0664 31.0053 72.8461 30.8414 72.9158 30.1523C72.9961 29.6285 72.5608 29.2478 72.1492 29.0728C70.8685 28.5365 69.3905 28.417 68.286 27.4792C67.2958 26.6637 67.142 25.1201 67.6048 23.9545C68.0493 22.8485 69.1236 22.1872 70.2005 21.9566Z" fill="#1E692E"/>
<path d="M31.447 22.0387C32.4489 22.0387 33.4509 22.0387 34.4542 22.0387C35.4746 24.2088 36.491 26.3803 37.5075 28.5519C38.5186 26.3817 39.5338 24.2144 40.5397 22.0415C41.5443 22.0359 42.5476 22.0401 43.5522 22.0401C43.5522 25.7593 43.5509 29.4772 43.5522 33.1964C42.7356 33.1964 41.919 33.1978 41.1025 33.195C41.0985 30.8512 41.1012 28.506 41.0841 26.1608C40.1912 28.1365 39.2958 30.1121 38.4003 32.0863C37.8033 32.0836 37.205 32.0905 36.6081 32.0808C35.7165 30.1038 34.8132 28.1323 33.9138 26.1608C33.9098 28.506 33.9138 30.8512 33.9111 33.1978C33.0893 33.1964 32.2675 33.1978 31.447 33.1964C31.447 29.4772 31.447 25.7579 31.447 22.0387Z" fill="#1E692E"/>
<path d="M44.4924 33.1964C46.0032 29.4785 47.5141 25.7593 49.0262 22.04C49.9756 22.0414 50.9263 22.0331 51.8757 22.0442C53.3432 25.7634 54.8264 29.4771 56.2991 33.1964C55.3182 33.2005 54.3372 33.1908 53.3563 33.2019C53.1052 32.5462 52.8724 31.8835 52.6265 31.2263C51.1091 31.2263 49.5917 31.2263 48.0756 31.2249C47.8257 31.8807 47.5825 32.5392 47.3366 33.1964C46.3872 33.1978 45.4391 33.1964 44.4924 33.1964ZM50.3727 25.0327C49.8823 26.3525 49.3905 27.6724 48.904 28.995C49.8731 28.9936 50.8422 28.9936 51.8113 28.9936C51.3353 27.6724 50.8527 26.3539 50.3727 25.0327Z" fill="#1E692E"/>
<path d="M57.2354 33.1963C57.238 29.4771 57.2328 25.7578 57.2367 22.0386C58.8869 22.0441 60.5372 22.033 62.1874 22.0427C63.3616 22.0705 64.6187 22.4609 65.3853 23.4585C66.1651 24.463 66.2584 25.8704 66.0257 27.1013C65.8192 28.2642 65.0303 29.2784 63.9915 29.7174C62.7318 30.2829 61.3353 30.0745 60.0059 30.1148C60.0033 31.1415 60.0059 32.1682 60.0059 33.1963C59.0815 33.1963 58.1585 33.1977 57.2354 33.1963ZM60.0059 24.3671C60.0046 25.5036 60.0059 26.64 60.0046 27.7779C60.8264 27.7362 61.668 27.8793 62.4754 27.6751C63.7785 27.3194 63.8823 25.0548 62.6463 24.5366C61.8008 24.2198 60.883 24.4227 60.0059 24.3671Z" fill="#1E692E"/>
<path d="M57.8231 7.61732C58.6738 6.88931 59.7981 6.6309 60.8711 6.617C62.3872 6.59894 63.9138 7.02824 65.2064 7.87157C64.8566 8.6496 64.5108 9.42901 64.161 10.2057C63.1853 9.62908 62.1268 9.16087 61.0078 9.02611C60.5594 8.98859 59.9743 9.01082 59.7205 9.47347C59.5167 9.91528 59.7981 10.4057 60.1794 10.6072C61.5193 11.3324 63.184 11.3699 64.3438 12.4633C65.2366 13.2691 65.3957 14.6682 65.0552 15.7977C64.6975 16.9481 63.6535 17.6983 62.5778 17.972C60.3398 18.5514 57.8744 17.8873 56.0887 16.3715C56.4424 15.6074 56.8053 14.8474 57.1617 14.0833C58.2083 15.0086 59.5101 15.6755 60.8842 15.7838C61.3931 15.8005 62.0874 15.7088 62.2794 15.1169C62.4529 14.5973 62.0716 14.1138 61.6377 13.9235C60.3609 13.3539 58.879 13.2511 57.7481 12.3424C56.3333 11.2296 56.4713 8.72462 57.8231 7.61732Z" fill="#424244"/>
<path d="M31.4469 6.84343C32.4476 6.84204 33.4496 6.84482 34.4515 6.84204C35.4772 9.0094 36.4857 11.1851 37.5088 13.3538C38.5212 11.1837 39.5337 9.01357 40.5436 6.84343C41.5469 6.84204 42.5489 6.84204 43.5522 6.84343C43.5535 10.5655 43.5535 14.2875 43.5522 18.0095C42.7356 18.0109 41.919 18.0109 41.1038 18.0095C41.0972 15.6629 41.0998 13.3149 41.0854 10.9684C40.1899 12.9412 39.297 14.9168 38.4016 16.8897C37.8072 16.8911 37.2129 16.8869 36.6199 16.8925C35.7099 14.921 34.8197 12.9398 33.9137 10.9656C33.9098 13.3149 33.9164 15.6629 33.9111 18.0109C33.0893 18.0095 32.2688 18.0095 31.4469 18.0109C31.4456 14.2875 31.4469 10.5655 31.4469 6.84343Z" fill="#424244"/>
<path d="M45.4089 6.84343C46.332 6.84204 47.2551 6.84343 48.1795 6.84204C48.1795 9.01079 48.1808 11.1795 48.1781 13.3497C48.1676 13.9318 48.307 14.5403 48.6804 14.9863C49.4102 15.9255 50.9553 15.9922 51.7153 15.0599C52.1124 14.5959 52.2452 13.9499 52.2386 13.3386C52.2386 11.174 52.2373 9.00801 52.2386 6.84343C53.1591 6.84204 54.0795 6.84204 55 6.84343C55 9.05525 55 11.2671 55 13.4789C55.0013 14.6098 54.6778 15.7685 53.9678 16.6313C53.2077 17.5719 52.0532 18.0734 50.904 18.1804C49.5509 18.3138 48.094 18.0665 47.0026 17.1606C45.9401 16.3034 45.4063 14.8738 45.4115 13.4858C45.405 11.2726 45.4102 9.05803 45.4089 6.84343Z" fill="#424244"/>
<path d="M66.6042 6.84344C67.5273 6.84344 68.4517 6.84066 69.3748 6.84483C69.3748 9.73464 69.3761 12.6258 69.3748 15.5156C70.8646 15.5198 72.3544 15.517 73.8442 15.517C73.8468 16.3479 73.8455 17.1787 73.8455 18.0095C71.4313 18.0109 69.0171 18.0109 66.6042 18.0095C66.6042 14.2875 66.6029 10.5655 66.6042 6.84344Z" fill="#424244"/>
<path d="M75.0855 6.84204C76.0086 6.84343 76.9317 6.84204 77.8548 6.84343C77.8561 10.5655 77.8548 14.2875 77.8548 18.0109C76.9317 18.0109 76.0099 18.0095 75.0868 18.0109C75.0829 14.2875 75.0855 10.5655 75.0855 6.84204Z" fill="#424244"/>
<path d="M79.8929 6.84343C80.8975 6.84343 81.9008 6.84066 82.9041 6.84482C83.9087 9.01357 84.9488 11.1643 85.9337 13.3427C86.9869 11.2032 87.9731 9.02469 88.9738 6.85594C89.9823 6.82537 90.9909 6.85038 91.9994 6.84343C91.9994 10.5655 92.0007 14.2875 91.9994 18.0095C91.1828 18.0109 90.3663 18.0095 89.551 18.0109C89.5366 15.6629 89.5589 13.3163 89.5234 10.9698C88.6411 12.9496 87.7417 14.921 86.8436 16.8925C86.2492 16.8869 85.6549 16.8911 85.0619 16.8897C84.1598 14.9127 83.2591 12.9357 82.3584 10.9586C82.3597 13.308 82.3584 15.6588 82.3584 18.0095C81.5365 18.0109 80.7147 18.0109 79.8929 18.0095C79.8929 14.2875 79.8929 10.5655 79.8929 6.84343Z" fill="#424244"/>
</svg>
