<svg width="20" height="20" viewBox="0 0 20 20" fill="none" xmlns="http://www.w3.org/2000/svg">
<path fill-rule="evenodd" clip-rule="evenodd" d="M2.5 5.66669V5.66669C2.5 6.16669 2.75 6.58335 3.16667 6.91669L8.16667 10.3334C9.33333 11.0834 10.75 11.0834 11.9167 10.3334L16.9167 7.00002C17.25 6.58335 17.5 6.16669 17.5 5.66669V5.66669C17.5 4.83335 16.8333 4.16669 16 4.16669H4C3.16667 4.16669 2.5 4.83335 2.5 5.66669Z" stroke="#595959" stroke-width="1.5" stroke-linecap="round" stroke-linejoin="round"/>
<path d="M2.5 5.83337V14.1667C2.5 15.0834 3.25 15.8334 4.16667 15.8334H15.8333C16.75 15.8334 17.5 15.0834 17.5 14.1667V5.83337" stroke="#595959" stroke-width="1.5" stroke-linecap="round" stroke-linejoin="round"/>
<path d="M2.98991 15.3437L8.06825 10.2653" stroke="#595959" stroke-width="1.5" stroke-linecap="round" stroke-linejoin="round"/>
<path d="M11.9666 10.3003L17.0099 15.3436" stroke="#595959" stroke-width="1.5" stroke-linecap="round" stroke-linejoin="round"/>
</svg>
