<svg width="400" height="286" viewBox="0 0 400 286" fill="none" xmlns="http://www.w3.org/2000/svg">
<g clip-path="url(#clip0_44_3656)">
<path d="M-88.9414 -166.921V450.599H393.508V-166.921H-88.9414Z" fill="#F0F0F0"/>
<path d="M439.081 -21.1382C418.775 -30.3429 395.203 -19.876 380.094 -0.223994C364.984 19.4292 357.297 46.7163 353.934 73.9514C350.571 101.187 351.106 128.926 350.045 156.464C348.983 184.005 346.18 212.043 336.713 236.81C328.681 257.823 316.243 275.478 306.301 295.106C273.327 360.213 269.794 441.927 267.258 519.449" stroke="#FCE1CD" stroke-width="26.6667" stroke-miterlimit="10"/>
<path d="M-87.5189 318.607C-105.877 318.606 -123.029 314.393 -138.498 306.085C-164.115 292.328 -184.431 267.042 -194.235 236.707L-196.691 229.105L-140.021 -54.1308L-136.028 -59.0141C-125.007 -72.4946 -109.759 -80.2259 -94.1959 -80.2259C-88.9964 -80.2259 -83.8614 -79.3664 -78.9332 -77.6682C-72.2215 -75.3562 -65.8897 -71.4534 -60.2282 -66.3218C-49.1574 -56.2896 -40.6471 -41.5642 -36.8607 -24.859C-34.7213 -15.4221 -34.1951 -6.35689 -33.7303 1.64C-33.477 6.00958 -33.237 10.1371 -32.7648 13.7656C-29.8256 36.3249 -16.0072 56.0893 -1.3773 77.0133C14.8683 100.248 33.2815 126.582 38.9686 161.522C45.0523 198.906 34.6429 240.485 11.8038 270.034C-12.284 301.196 -43.1174 312.492 -64.7421 316.482C-72.384 317.892 -80.0462 318.607 -87.5155 318.607C-87.517 318.607 -87.5174 318.607 -87.5189 318.607V318.607Z" stroke="white" stroke-width="14.6667" stroke-miterlimit="10"/>
<path d="M-176.402 227.265C-168.16 252.767 -150.915 272.631 -131.032 283.309C-111.148 293.987 -88.8374 295.972 -67.4955 292.034C-43.1725 287.546 -19.1989 275.022 -1.91521 252.661C15.369 230.301 25.0875 197.354 20.0758 166.56C10.6603 108.706 -44.206 76.1195 -51.7997 17.8281C-53.348 5.94204 -52.7709 -6.40218 -55.3943 -17.9757C-59.2768 -35.1033 -70.493 -49.1815 -83.9474 -53.8154C-97.402 -58.4493 -112.623 -53.4758 -122.696 -41.155L-176.402 227.265Z" fill="#FCE1CD"/>
<path d="M-120.16 -125.054C-90.6682 -123.395 -60.8974 -121.682 -32.3888 -111.874C-3.88056 -102.066 23.6614 -83.3503 41.5776 -53.3191C51.9937 -35.8605 59.0249 -14.9068 71.6786 -0.0653272C89.6189 20.9773 115.389 25.9755 139.517 30.0314C237.693 46.5315 335.87 63.0317 434.045 79.5331" stroke="white" stroke-width="14.6667" stroke-miterlimit="10"/>
<path d="M47.0518 7.63256C39.9897 -2.03905 32.8186 -20.1559 24.5977 -28.1873C16.6363 -35.9644 6.60056 -36.4004 -2.24968 -28.2676C-13.6461 -17.797 -16.9509 2.02916 -10.6609 18.0798C-3.30277 36.8536 9.33585 50.3761 20.7332 65.5597C46.468 99.8456 63.6452 143.06 70.8394 189.021C72.0079 196.48 80.143 197.126 82.0342 189.913L113.748 74.5236C116.669 63.8948 111.707 52.3941 103.126 49.8796C82.0419 43.7019 61.4018 27.2858 47.0518 7.63256Z" fill="#C7D8C2"/>
<path d="M39.4727 194.881C46.9226 210.39 59.5985 221.627 73.5625 225.098C74.1434 225.243 74.7271 225.374 75.3128 225.491C94.8703 229.422 113.748 214.359 120.397 190.491L163.862 34.4772L130.735 -198.622" stroke="white" stroke-width="14.6667" stroke-miterlimit="10"/>
<path d="M88.7266 226.113L173.19 473.24" stroke="white" stroke-width="14.6667" stroke-miterlimit="10"/>
<path d="M291.552 -210.972L279.06 53.4845L235.588 247.466L220.539 374.812" stroke="white" stroke-width="14.6667" stroke-miterlimit="10"/>
<path d="M-12.7344 60.4139L57.4026 -24.5174" stroke="white" stroke-width="6.66667" stroke-miterlimit="10"/>
<path d="M32.7734 138.728C43.726 116.233 64.1355 103.23 84.6965 100.08C105.258 96.9296 126.057 102.539 145.798 110.544" stroke="white" stroke-width="6.66667" stroke-miterlimit="10"/>
<path d="M21.3906 22.0389L76.88 101.76" stroke="white" stroke-width="6.66667" stroke-miterlimit="10"/>
<path d="M146.715 0.206054C146.033 -4.80945 144.088 -10.1535 140.334 -11.8344C138.031 -12.8656 135.502 -12.3086 133.104 -11.7417C129.4 -10.8661 125.697 -9.99045 121.994 -9.1148C118.904 -8.38489 115.717 -7.60433 113.107 -5.3652C110.497 -3.12731 108.595 0.981677 109.351 4.88564C109.913 7.78923 111.826 10.0185 113.962 11.2325C116.098 12.4478 118.462 12.8047 120.784 13.1468C128.227 14.2448 135.669 15.3415 143.113 16.4394L145.179 16.7655C146.351 16.2517 147.522 15.738 148.693 15.2242C147.246 10.4828 147.396 5.22156 146.715 0.206054Z" fill="#C7D8C2"/>
<path d="M93.3809 11.7596C93.6848 1.32972 98.5624 -8.68771 105.743 -13.6328C109.623 -16.3042 114.001 -17.5257 118.336 -18.5297C130.533 -21.353 142.94 -22.6943 155.335 -22.5288" stroke="white" stroke-width="6.66667" stroke-miterlimit="10"/>
<path d="M328.759 174.404C326.926 174.404 325.441 176.304 325.441 178.648C325.441 180.994 326.926 182.894 328.759 182.894C330.59 182.894 332.075 180.994 332.075 178.648C332.075 176.304 330.59 174.404 328.759 174.404Z" fill="#C7D8C2"/>
<path d="M381.891 45.0324C380.059 45.0324 378.574 46.9331 378.574 49.2773C378.574 51.6226 380.059 53.5233 381.891 53.5233C383.723 53.5233 385.208 51.6226 385.208 49.2773C385.208 46.9331 383.723 45.0324 381.891 45.0324Z" fill="#C7D8C2"/>
<path d="M385.208 190.407C383.376 190.407 381.891 192.308 381.891 194.652C381.891 196.998 383.376 198.898 385.208 198.898C387.039 198.898 388.524 196.998 388.524 194.652C388.524 192.308 387.039 190.407 385.208 190.407Z" fill="#C7D8C2"/>
<path d="M367.913 259.571C366.081 259.571 364.596 261.472 364.596 263.818C364.596 266.162 366.081 268.062 367.913 268.062C369.744 268.062 371.229 266.162 371.229 263.818C371.229 261.472 369.744 259.571 367.913 259.571Z" fill="#C7D8C2"/>
<path d="M385.208 280.862C383.376 280.862 381.891 282.763 381.891 285.109C381.891 287.453 383.376 289.353 385.208 289.353C387.039 289.353 388.524 287.453 388.524 285.109C388.524 282.763 387.039 280.862 385.208 280.862Z" fill="#C7D8C2"/>
<path d="M130.959 141.839L235.587 247.467H453.654" stroke="white" stroke-width="14.6667" stroke-miterlimit="10"/>
<path d="M287.909 268.077L252.108 268.062C249.734 268.061 247.715 270.28 247.357 273.284L237.927 352.295C237.524 355.676 239.352 358.829 241.997 359.313L257.35 362.125C259.761 362.566 262.054 360.632 262.669 357.616C268.474 329.146 278.351 301.738 291.787 277.842C294.081 273.763 291.836 268.078 287.909 268.077" fill="#C7D8C2"/>
<path d="M144.564 109.763C184.934 110.753 225.302 111.744 265.671 112.734" stroke="white" stroke-width="14" stroke-miterlimit="10"/>
<path d="M418.115 251.159C393.127 253.251 369.817 275.228 360.845 305.152C355.669 322.414 355.064 341.257 353.284 359.606C349.707 396.477 341.126 432.544 328.039 465.707" stroke="white" stroke-width="6.66667" stroke-miterlimit="10"/>
<g filter="url(#filter0_d_44_3656)">
<path d="M212.107 26.6697L265.67 34.4764L267.256 -9.49474H212.107V26.6697" fill="#D9D9D9"/>
</g>
<g filter="url(#filter1_d_44_3656)">
<path d="M201.976 24.5096H179.301V-17.7905H201.976V24.5096Z" fill="#D9D9D9"/>
</g>
<g filter="url(#filter2_d_44_3656)">
<path d="M371.316 172.303H403.158V92.0249H371.316V172.303Z" fill="#D9D9D9"/>
</g>
<g filter="url(#filter3_d_44_3656)">
<path d="M426.636 223.351H361.023V205.237H426.636V223.351Z" fill="#D9D9D9"/>
</g>
<g filter="url(#filter4_d_44_3656)">
<path d="M292.709 168.597V134.017H280.937L261.639 228.703H317.925V168.597H292.709" fill="#D9D9D9"/>
</g>
<g filter="url(#filter5_d_44_3656)">
<path d="M292.307 76.7922L284.797 111.25H332.077V81.9201L292.307 76.7922Z" fill="#D9D9D9"/>
</g>
<g filter="url(#filter6_d_44_3656)">
<path d="M332.078 155.012H308.438V124.753H332.078V155.012Z" fill="#D9D9D9"/>
</g>
<g filter="url(#filter7_d_44_3656)">
<path d="M159.984 192.658L142.152 174.403L124.18 224.44L141.713 246.367L159.984 192.658Z" fill="#D9D9D9"/>
</g>
<g filter="url(#filter8_d_44_3656)">
<path d="M194.869 228.368L166.23 199.049L147.621 253.753L174.708 287.629L194.869 228.368" fill="#D9D9D9"/>
</g>
<g filter="url(#filter9_d_44_3656)">
<path d="M201.113 234.76L180.613 295.016L208.731 330.182L219.104 253.179L201.113 234.76" fill="#D9D9D9"/>
</g>
<g filter="url(#filter10_d_44_3656)">
<path d="M253.278 97.1327H181.715V69.3442H253.278V97.1327Z" fill="#D9D9D9"/>
</g>
<g filter="url(#filter11_d_44_3656)">
<path d="M186.056 59.2968H172.227V51.269H186.056V59.2968Z" fill="#D9D9D9"/>
</g>
<g filter="url(#filter12_d_44_3656)">
<path d="M211.143 124.753H205.117V167.156H237.356L247.327 124.753H211.143Z" fill="#D9D9D9"/>
</g>
<g filter="url(#filter13_d_44_3656)">
<path d="M164.184 120.431V129.076H184.608V120.431H164.184Z" fill="#D9D9D9"/>
</g>
<g filter="url(#filter14_d_44_3656)">
<path d="M164.184 134.405V143.051H184.608V134.405H164.184Z" fill="#D9D9D9"/>
</g>
<g filter="url(#filter15_d_44_3656)">
<path d="M164.184 148.38V157.025H184.608V148.38H164.184Z" fill="#D9D9D9"/>
</g>
<path d="M168.645 179.885H249.683" stroke="white" stroke-width="6.66667" stroke-miterlimit="10"/>
<g filter="url(#filter16_d_44_3656)">
<path d="M296.601 -1.28409L295.09 35.7128L342.129 42.4178L344.282 -1.28409H296.601Z" fill="#D9D9D9"/>
</g>
<g filter="url(#filter17_d_44_3656)">
<path d="M354.276 288.047L356.601 273.678H336.579L330.668 288.047H354.276Z" fill="#D9D9D9"/>
</g>
<path d="M107.246 214.295L188.95 366.433" stroke="white" stroke-width="6.66667" stroke-miterlimit="10"/>
<g filter="url(#filter18_d_44_3656)">
<path d="M37.0551 256.284L3.96506 318.607L40.7796 341.416L63.1923 269.665L37.0551 256.284Z" fill="#D9D9D9"/>
</g>
</g>
<path d="M193.237 129.804C194.134 129.804 194.861 130.531 194.861 131.428C194.861 132.324 194.134 133.051 193.237 133.051C192.34 133.051 191.614 132.324 191.614 131.428C191.614 130.531 192.34 129.804 193.237 129.804Z" fill="#242429"/>
<path d="M190.647 127.746C182.911 127.201 177 124.254 177 120.701C177 116.761 184.27 113.567 193.237 113.567C202.205 113.567 209.474 116.761 209.474 120.701C209.474 124.244 203.598 127.184 195.894 127.741C193.641 128.203 193.237 129.263 193.237 129.263C193.237 129.263 192.212 127.987 190.647 127.746Z" fill="url(#paint0_linear_44_3656)"/>
<path d="M190.647 125.269C182.911 124.028 177 117.323 177 109.237C177 100.27 184.27 93 193.237 93C202.205 93 209.474 100.27 209.474 109.237C209.474 117.299 203.598 123.989 195.895 125.258C193.641 126.309 193.237 128.721 193.237 128.721C193.237 128.721 192.212 125.817 190.647 125.269Z" fill="#242429"/>
<path fill-rule="evenodd" clip-rule="evenodd" d="M201.184 112.26C198.791 113.026 196.014 112.547 194.099 110.632C191.705 108.238 191.513 104.408 193.428 101.727C189.503 102.11 186.439 105.366 186.439 109.387C186.439 113.601 189.886 117.048 194.099 117.048C197.259 117.048 200.035 115.037 201.184 112.26Z" stroke="white" stroke-width="1.05055" stroke-linecap="round" stroke-linejoin="round"/>
<path fill-rule="evenodd" clip-rule="evenodd" d="M199.845 101.727C199.845 103.843 198.13 105.559 196.014 105.559C198.13 105.559 199.845 107.274 199.845 109.391C199.845 107.274 201.561 105.559 203.677 105.559C201.561 105.559 199.845 103.843 199.845 101.727Z" stroke="white" stroke-width="1.05055" stroke-linecap="round" stroke-linejoin="round"/>
<g filter="url(#filter19_d_44_3656)">
<rect x="328" y="21" width="48" height="48" rx="24" fill="#FBFBFB"/>
<path d="M347.833 52.5H344.5V49.1667" stroke="#323232" stroke-width="1.5" stroke-linecap="round" stroke-linejoin="round"/>
<path d="M344.5 40.8333V37.5H347.833" stroke="#323232" stroke-width="1.5" stroke-linecap="round" stroke-linejoin="round"/>
<path d="M359.5 49.1667V52.5H356.167" stroke="#323232" stroke-width="1.5" stroke-linecap="round" stroke-linejoin="round"/>
<path d="M359.5 52.5L344.5 37.5" stroke="#323232" stroke-width="1.5" stroke-linecap="round" stroke-linejoin="round"/>
<path d="M359.5 37.5L344.5 52.5" stroke="#323232" stroke-width="1.5" stroke-linecap="round" stroke-linejoin="round"/>
<path d="M356.167 37.5H359.5V40.8333" stroke="#323232" stroke-width="1.5" stroke-linecap="round" stroke-linejoin="round"/>
<rect x="328.5" y="21.5" width="47" height="47" rx="23.5" stroke="white"/>
</g>
<defs>
<filter id="filter0_d_44_3656" x="208.107" y="-9.49475" width="63.1488" height="51.9712" filterUnits="userSpaceOnUse" color-interpolation-filters="sRGB">
<feFlood flood-opacity="0" result="BackgroundImageFix"/>
<feColorMatrix in="SourceAlpha" type="matrix" values="0 0 0 0 0 0 0 0 0 0 0 0 0 0 0 0 0 0 127 0" result="hardAlpha"/>
<feOffset dy="4"/>
<feGaussianBlur stdDeviation="2"/>
<feComposite in2="hardAlpha" operator="out"/>
<feColorMatrix type="matrix" values="0 0 0 0 0 0 0 0 0 0 0 0 0 0 0 0 0 0 0.25 0"/>
<feBlend mode="normal" in2="BackgroundImageFix" result="effect1_dropShadow_44_3656"/>
<feBlend mode="normal" in="SourceGraphic" in2="effect1_dropShadow_44_3656" result="shape"/>
</filter>
<filter id="filter1_d_44_3656" x="175.301" y="-17.7905" width="30.6751" height="50.3002" filterUnits="userSpaceOnUse" color-interpolation-filters="sRGB">
<feFlood flood-opacity="0" result="BackgroundImageFix"/>
<feColorMatrix in="SourceAlpha" type="matrix" values="0 0 0 0 0 0 0 0 0 0 0 0 0 0 0 0 0 0 127 0" result="hardAlpha"/>
<feOffset dy="4"/>
<feGaussianBlur stdDeviation="2"/>
<feComposite in2="hardAlpha" operator="out"/>
<feColorMatrix type="matrix" values="0 0 0 0 0 0 0 0 0 0 0 0 0 0 0 0 0 0 0.25 0"/>
<feBlend mode="normal" in2="BackgroundImageFix" result="effect1_dropShadow_44_3656"/>
<feBlend mode="normal" in="SourceGraphic" in2="effect1_dropShadow_44_3656" result="shape"/>
</filter>
<filter id="filter2_d_44_3656" x="367.316" y="92.0249" width="39.8417" height="88.2777" filterUnits="userSpaceOnUse" color-interpolation-filters="sRGB">
<feFlood flood-opacity="0" result="BackgroundImageFix"/>
<feColorMatrix in="SourceAlpha" type="matrix" values="0 0 0 0 0 0 0 0 0 0 0 0 0 0 0 0 0 0 127 0" result="hardAlpha"/>
<feOffset dy="4"/>
<feGaussianBlur stdDeviation="2"/>
<feComposite in2="hardAlpha" operator="out"/>
<feColorMatrix type="matrix" values="0 0 0 0 0 0 0 0 0 0 0 0 0 0 0 0 0 0 0.25 0"/>
<feBlend mode="normal" in2="BackgroundImageFix" result="effect1_dropShadow_44_3656"/>
<feBlend mode="normal" in="SourceGraphic" in2="effect1_dropShadow_44_3656" result="shape"/>
</filter>
<filter id="filter3_d_44_3656" x="357.023" y="205.237" width="73.613" height="26.1144" filterUnits="userSpaceOnUse" color-interpolation-filters="sRGB">
<feFlood flood-opacity="0" result="BackgroundImageFix"/>
<feColorMatrix in="SourceAlpha" type="matrix" values="0 0 0 0 0 0 0 0 0 0 0 0 0 0 0 0 0 0 127 0" result="hardAlpha"/>
<feOffset dy="4"/>
<feGaussianBlur stdDeviation="2"/>
<feComposite in2="hardAlpha" operator="out"/>
<feColorMatrix type="matrix" values="0 0 0 0 0 0 0 0 0 0 0 0 0 0 0 0 0 0 0.25 0"/>
<feBlend mode="normal" in2="BackgroundImageFix" result="effect1_dropShadow_44_3656"/>
<feBlend mode="normal" in="SourceGraphic" in2="effect1_dropShadow_44_3656" result="shape"/>
</filter>
<filter id="filter4_d_44_3656" x="257.639" y="134.017" width="64.2865" height="102.686" filterUnits="userSpaceOnUse" color-interpolation-filters="sRGB">
<feFlood flood-opacity="0" result="BackgroundImageFix"/>
<feColorMatrix in="SourceAlpha" type="matrix" values="0 0 0 0 0 0 0 0 0 0 0 0 0 0 0 0 0 0 127 0" result="hardAlpha"/>
<feOffset dy="4"/>
<feGaussianBlur stdDeviation="2"/>
<feComposite in2="hardAlpha" operator="out"/>
<feColorMatrix type="matrix" values="0 0 0 0 0 0 0 0 0 0 0 0 0 0 0 0 0 0 0.25 0"/>
<feBlend mode="normal" in2="BackgroundImageFix" result="effect1_dropShadow_44_3656"/>
<feBlend mode="normal" in="SourceGraphic" in2="effect1_dropShadow_44_3656" result="shape"/>
</filter>
<filter id="filter5_d_44_3656" x="280.797" y="76.7922" width="55.28" height="42.4576" filterUnits="userSpaceOnUse" color-interpolation-filters="sRGB">
<feFlood flood-opacity="0" result="BackgroundImageFix"/>
<feColorMatrix in="SourceAlpha" type="matrix" values="0 0 0 0 0 0 0 0 0 0 0 0 0 0 0 0 0 0 127 0" result="hardAlpha"/>
<feOffset dy="4"/>
<feGaussianBlur stdDeviation="2"/>
<feComposite in2="hardAlpha" operator="out"/>
<feColorMatrix type="matrix" values="0 0 0 0 0 0 0 0 0 0 0 0 0 0 0 0 0 0 0.25 0"/>
<feBlend mode="normal" in2="BackgroundImageFix" result="effect1_dropShadow_44_3656"/>
<feBlend mode="normal" in="SourceGraphic" in2="effect1_dropShadow_44_3656" result="shape"/>
</filter>
<filter id="filter6_d_44_3656" x="304.438" y="124.753" width="31.64" height="38.2585" filterUnits="userSpaceOnUse" color-interpolation-filters="sRGB">
<feFlood flood-opacity="0" result="BackgroundImageFix"/>
<feColorMatrix in="SourceAlpha" type="matrix" values="0 0 0 0 0 0 0 0 0 0 0 0 0 0 0 0 0 0 127 0" result="hardAlpha"/>
<feOffset dy="4"/>
<feGaussianBlur stdDeviation="2"/>
<feComposite in2="hardAlpha" operator="out"/>
<feColorMatrix type="matrix" values="0 0 0 0 0 0 0 0 0 0 0 0 0 0 0 0 0 0 0.25 0"/>
<feBlend mode="normal" in2="BackgroundImageFix" result="effect1_dropShadow_44_3656"/>
<feBlend mode="normal" in="SourceGraphic" in2="effect1_dropShadow_44_3656" result="shape"/>
</filter>
<filter id="filter7_d_44_3656" x="120.18" y="174.403" width="43.8045" height="79.9645" filterUnits="userSpaceOnUse" color-interpolation-filters="sRGB">
<feFlood flood-opacity="0" result="BackgroundImageFix"/>
<feColorMatrix in="SourceAlpha" type="matrix" values="0 0 0 0 0 0 0 0 0 0 0 0 0 0 0 0 0 0 127 0" result="hardAlpha"/>
<feOffset dy="4"/>
<feGaussianBlur stdDeviation="2"/>
<feComposite in2="hardAlpha" operator="out"/>
<feColorMatrix type="matrix" values="0 0 0 0 0 0 0 0 0 0 0 0 0 0 0 0 0 0 0.25 0"/>
<feBlend mode="normal" in2="BackgroundImageFix" result="effect1_dropShadow_44_3656"/>
<feBlend mode="normal" in="SourceGraphic" in2="effect1_dropShadow_44_3656" result="shape"/>
</filter>
<filter id="filter8_d_44_3656" x="143.621" y="199.049" width="55.2482" height="96.5797" filterUnits="userSpaceOnUse" color-interpolation-filters="sRGB">
<feFlood flood-opacity="0" result="BackgroundImageFix"/>
<feColorMatrix in="SourceAlpha" type="matrix" values="0 0 0 0 0 0 0 0 0 0 0 0 0 0 0 0 0 0 127 0" result="hardAlpha"/>
<feOffset dy="4"/>
<feGaussianBlur stdDeviation="2"/>
<feComposite in2="hardAlpha" operator="out"/>
<feColorMatrix type="matrix" values="0 0 0 0 0 0 0 0 0 0 0 0 0 0 0 0 0 0 0.25 0"/>
<feBlend mode="normal" in2="BackgroundImageFix" result="effect1_dropShadow_44_3656"/>
<feBlend mode="normal" in="SourceGraphic" in2="effect1_dropShadow_44_3656" result="shape"/>
</filter>
<filter id="filter9_d_44_3656" x="176.613" y="234.76" width="46.4907" height="103.422" filterUnits="userSpaceOnUse" color-interpolation-filters="sRGB">
<feFlood flood-opacity="0" result="BackgroundImageFix"/>
<feColorMatrix in="SourceAlpha" type="matrix" values="0 0 0 0 0 0 0 0 0 0 0 0 0 0 0 0 0 0 127 0" result="hardAlpha"/>
<feOffset dy="4"/>
<feGaussianBlur stdDeviation="2"/>
<feComposite in2="hardAlpha" operator="out"/>
<feColorMatrix type="matrix" values="0 0 0 0 0 0 0 0 0 0 0 0 0 0 0 0 0 0 0.25 0"/>
<feBlend mode="normal" in2="BackgroundImageFix" result="effect1_dropShadow_44_3656"/>
<feBlend mode="normal" in="SourceGraphic" in2="effect1_dropShadow_44_3656" result="shape"/>
</filter>
<filter id="filter10_d_44_3656" x="177.715" y="69.3442" width="79.5636" height="35.7885" filterUnits="userSpaceOnUse" color-interpolation-filters="sRGB">
<feFlood flood-opacity="0" result="BackgroundImageFix"/>
<feColorMatrix in="SourceAlpha" type="matrix" values="0 0 0 0 0 0 0 0 0 0 0 0 0 0 0 0 0 0 127 0" result="hardAlpha"/>
<feOffset dy="4"/>
<feGaussianBlur stdDeviation="2"/>
<feComposite in2="hardAlpha" operator="out"/>
<feColorMatrix type="matrix" values="0 0 0 0 0 0 0 0 0 0 0 0 0 0 0 0 0 0 0.25 0"/>
<feBlend mode="normal" in2="BackgroundImageFix" result="effect1_dropShadow_44_3656"/>
<feBlend mode="normal" in="SourceGraphic" in2="effect1_dropShadow_44_3656" result="shape"/>
</filter>
<filter id="filter11_d_44_3656" x="168.227" y="51.269" width="21.8299" height="16.0278" filterUnits="userSpaceOnUse" color-interpolation-filters="sRGB">
<feFlood flood-opacity="0" result="BackgroundImageFix"/>
<feColorMatrix in="SourceAlpha" type="matrix" values="0 0 0 0 0 0 0 0 0 0 0 0 0 0 0 0 0 0 127 0" result="hardAlpha"/>
<feOffset dy="4"/>
<feGaussianBlur stdDeviation="2"/>
<feComposite in2="hardAlpha" operator="out"/>
<feColorMatrix type="matrix" values="0 0 0 0 0 0 0 0 0 0 0 0 0 0 0 0 0 0 0.25 0"/>
<feBlend mode="normal" in2="BackgroundImageFix" result="effect1_dropShadow_44_3656"/>
<feBlend mode="normal" in="SourceGraphic" in2="effect1_dropShadow_44_3656" result="shape"/>
</filter>
<filter id="filter12_d_44_3656" x="201.117" y="124.753" width="50.2094" height="50.4026" filterUnits="userSpaceOnUse" color-interpolation-filters="sRGB">
<feFlood flood-opacity="0" result="BackgroundImageFix"/>
<feColorMatrix in="SourceAlpha" type="matrix" values="0 0 0 0 0 0 0 0 0 0 0 0 0 0 0 0 0 0 127 0" result="hardAlpha"/>
<feOffset dy="4"/>
<feGaussianBlur stdDeviation="2"/>
<feComposite in2="hardAlpha" operator="out"/>
<feColorMatrix type="matrix" values="0 0 0 0 0 0 0 0 0 0 0 0 0 0 0 0 0 0 0.25 0"/>
<feBlend mode="normal" in2="BackgroundImageFix" result="effect1_dropShadow_44_3656"/>
<feBlend mode="normal" in="SourceGraphic" in2="effect1_dropShadow_44_3656" result="shape"/>
</filter>
<filter id="filter13_d_44_3656" x="160.184" y="120.431" width="28.424" height="16.6453" filterUnits="userSpaceOnUse" color-interpolation-filters="sRGB">
<feFlood flood-opacity="0" result="BackgroundImageFix"/>
<feColorMatrix in="SourceAlpha" type="matrix" values="0 0 0 0 0 0 0 0 0 0 0 0 0 0 0 0 0 0 127 0" result="hardAlpha"/>
<feOffset dy="4"/>
<feGaussianBlur stdDeviation="2"/>
<feComposite in2="hardAlpha" operator="out"/>
<feColorMatrix type="matrix" values="0 0 0 0 0 0 0 0 0 0 0 0 0 0 0 0 0 0 0.25 0"/>
<feBlend mode="normal" in2="BackgroundImageFix" result="effect1_dropShadow_44_3656"/>
<feBlend mode="normal" in="SourceGraphic" in2="effect1_dropShadow_44_3656" result="shape"/>
</filter>
<filter id="filter14_d_44_3656" x="160.184" y="134.405" width="28.424" height="16.6453" filterUnits="userSpaceOnUse" color-interpolation-filters="sRGB">
<feFlood flood-opacity="0" result="BackgroundImageFix"/>
<feColorMatrix in="SourceAlpha" type="matrix" values="0 0 0 0 0 0 0 0 0 0 0 0 0 0 0 0 0 0 127 0" result="hardAlpha"/>
<feOffset dy="4"/>
<feGaussianBlur stdDeviation="2"/>
<feComposite in2="hardAlpha" operator="out"/>
<feColorMatrix type="matrix" values="0 0 0 0 0 0 0 0 0 0 0 0 0 0 0 0 0 0 0.25 0"/>
<feBlend mode="normal" in2="BackgroundImageFix" result="effect1_dropShadow_44_3656"/>
<feBlend mode="normal" in="SourceGraphic" in2="effect1_dropShadow_44_3656" result="shape"/>
</filter>
<filter id="filter15_d_44_3656" x="160.184" y="148.38" width="28.424" height="16.6453" filterUnits="userSpaceOnUse" color-interpolation-filters="sRGB">
<feFlood flood-opacity="0" result="BackgroundImageFix"/>
<feColorMatrix in="SourceAlpha" type="matrix" values="0 0 0 0 0 0 0 0 0 0 0 0 0 0 0 0 0 0 127 0" result="hardAlpha"/>
<feOffset dy="4"/>
<feGaussianBlur stdDeviation="2"/>
<feComposite in2="hardAlpha" operator="out"/>
<feColorMatrix type="matrix" values="0 0 0 0 0 0 0 0 0 0 0 0 0 0 0 0 0 0 0.25 0"/>
<feBlend mode="normal" in2="BackgroundImageFix" result="effect1_dropShadow_44_3656"/>
<feBlend mode="normal" in="SourceGraphic" in2="effect1_dropShadow_44_3656" result="shape"/>
</filter>
<filter id="filter16_d_44_3656" x="291.09" y="-1.28406" width="57.1925" height="51.7019" filterUnits="userSpaceOnUse" color-interpolation-filters="sRGB">
<feFlood flood-opacity="0" result="BackgroundImageFix"/>
<feColorMatrix in="SourceAlpha" type="matrix" values="0 0 0 0 0 0 0 0 0 0 0 0 0 0 0 0 0 0 127 0" result="hardAlpha"/>
<feOffset dy="4"/>
<feGaussianBlur stdDeviation="2"/>
<feComposite in2="hardAlpha" operator="out"/>
<feColorMatrix type="matrix" values="0 0 0 0 0 0 0 0 0 0 0 0 0 0 0 0 0 0 0.25 0"/>
<feBlend mode="normal" in2="BackgroundImageFix" result="effect1_dropShadow_44_3656"/>
<feBlend mode="normal" in="SourceGraphic" in2="effect1_dropShadow_44_3656" result="shape"/>
</filter>
<filter id="filter17_d_44_3656" x="326.668" y="273.678" width="33.9326" height="22.3685" filterUnits="userSpaceOnUse" color-interpolation-filters="sRGB">
<feFlood flood-opacity="0" result="BackgroundImageFix"/>
<feColorMatrix in="SourceAlpha" type="matrix" values="0 0 0 0 0 0 0 0 0 0 0 0 0 0 0 0 0 0 127 0" result="hardAlpha"/>
<feOffset dy="4"/>
<feGaussianBlur stdDeviation="2"/>
<feComposite in2="hardAlpha" operator="out"/>
<feColorMatrix type="matrix" values="0 0 0 0 0 0 0 0 0 0 0 0 0 0 0 0 0 0 0.25 0"/>
<feBlend mode="normal" in2="BackgroundImageFix" result="effect1_dropShadow_44_3656"/>
<feBlend mode="normal" in="SourceGraphic" in2="effect1_dropShadow_44_3656" result="shape"/>
</filter>
<filter id="filter18_d_44_3656" x="-0.0349426" y="256.284" width="67.2272" height="93.1313" filterUnits="userSpaceOnUse" color-interpolation-filters="sRGB">
<feFlood flood-opacity="0" result="BackgroundImageFix"/>
<feColorMatrix in="SourceAlpha" type="matrix" values="0 0 0 0 0 0 0 0 0 0 0 0 0 0 0 0 0 0 127 0" result="hardAlpha"/>
<feOffset dy="4"/>
<feGaussianBlur stdDeviation="2"/>
<feComposite in2="hardAlpha" operator="out"/>
<feColorMatrix type="matrix" values="0 0 0 0 0 0 0 0 0 0 0 0 0 0 0 0 0 0 0.25 0"/>
<feBlend mode="normal" in2="BackgroundImageFix" result="effect1_dropShadow_44_3656"/>
<feBlend mode="normal" in="SourceGraphic" in2="effect1_dropShadow_44_3656" result="shape"/>
</filter>
<filter id="filter19_d_44_3656" x="300" y="1" width="112" height="112" filterUnits="userSpaceOnUse" color-interpolation-filters="sRGB">
<feFlood flood-opacity="0" result="BackgroundImageFix"/>
<feColorMatrix in="SourceAlpha" type="matrix" values="0 0 0 0 0 0 0 0 0 0 0 0 0 0 0 0 0 0 127 0" result="hardAlpha"/>
<feOffset dx="4" dy="12"/>
<feGaussianBlur stdDeviation="16"/>
<feComposite in2="hardAlpha" operator="out"/>
<feColorMatrix type="matrix" values="0 0 0 0 0.258824 0 0 0 0 0.258824 0 0 0 0 0.266667 0 0 0 0.08 0"/>
<feBlend mode="normal" in2="BackgroundImageFix" result="effect1_dropShadow_44_3656"/>
<feBlend mode="normal" in="SourceGraphic" in2="effect1_dropShadow_44_3656" result="shape"/>
</filter>
<linearGradient id="paint0_linear_44_3656" x1="163.393" y1="120.009" x2="163.393" y2="148.858" gradientUnits="userSpaceOnUse">
<stop stop-opacity="0.01"/>
<stop offset="1" stop-opacity="0.301961"/>
</linearGradient>
<clipPath id="clip0_44_3656">
<rect width="386" height="286" rx="12" fill="white"/>
</clipPath>
</defs>
</svg>
