<svg width="48" height="48" viewBox="0 0 48 48" fill="none" xmlns="http://www.w3.org/2000/svg">
<rect width="48" height="48" rx="24" fill="#FBFBFB"/>
<path d="M25.6 32H22.4" stroke="#323232" stroke-width="1.5" stroke-linecap="round" stroke-linejoin="round"/>
<path fill-rule="evenodd" clip-rule="evenodd" d="M29 22.032V22V22C29 19.239 26.761 17 24 17V17C21.239 17 19 19.239 19 22V22V22.032V24.504C19 24.828 18.817 25.123 18.528 25.268L18.025 25.519C17.397 25.834 17 26.476 17 27.178V27.178C17 28.202 17.83 29.032 18.854 29.032H29.146C30.17 29.032 31 28.202 31 27.178V27.178C31 26.476 30.603 25.834 29.975 25.52L29.472 25.269C29.183 25.123 29 24.828 29 24.504V22.032Z" stroke="#323232" stroke-width="1.5" stroke-linecap="round" stroke-linejoin="round"/>
</svg>
