<svg width="14" height="18" viewBox="0 0 14 18" fill="none" xmlns="http://www.w3.org/2000/svg">
<path d="M8.26979 6.22273C8.97106 6.924 8.97106 8.06098 8.26979 8.76225C7.56852 9.46352 6.43154 9.46352 5.73027 8.76225C5.029 8.06098 5.029 6.924 5.73027 6.22273C6.43154 5.52146 7.56852 5.52146 8.26979 6.22273" stroke="#010F07" stroke-width="1.5" stroke-linecap="round" stroke-linejoin="round"/>
<path d="M12.8768 7.26429V7.26429C12.8768 8.86071 12.1675 10.3736 10.9418 11.3957L9.0143 13.0018C8.24609 13.6425 7.6718 14.4836 7.35573 15.4329L7.00001 16.5L6.6443 15.4329C6.32823 14.4846 5.75394 13.6425 4.98573 13.0018L3.05823 11.3957C1.83144 10.3736 1.12323 8.86071 1.12323 7.26429V7.26429V7.29429C1.12323 3.62786 4.15966 1.5 7.00001 1.5C9.84037 1.5 12.8768 3.62786 12.8768 7.29429" stroke="#010F07" stroke-width="1.5" stroke-linecap="round" stroke-linejoin="round"/>
</svg>
