<svg width="16" height="16" viewBox="0 0 16 16" fill="none" xmlns="http://www.w3.org/2000/svg">
<path fill-rule="evenodd" clip-rule="evenodd" d="M7.04678 8.95361C6.07178 7.97861 5.33678 6.88695 4.84845 5.77945C4.74512 5.54528 4.80595 5.27111 4.98678 5.09028L5.66928 4.40861C6.22845 3.84945 6.22845 3.05861 5.74012 2.57028L4.76178 1.59195C4.11095 0.941112 3.05595 0.941112 2.40512 1.59195L1.86178 2.13528C1.24428 2.75278 0.986783 3.64361 1.15345 4.52695C1.56512 6.70445 2.83012 9.08861 4.87095 11.1294C6.91178 13.1703 9.29595 14.4353 11.4734 14.8469C12.3568 15.0136 13.2476 14.7561 13.8651 14.1386L14.4076 13.5961C15.0584 12.9453 15.0584 11.8903 14.4076 11.2394L13.4301 10.2619C12.9418 9.77361 12.1501 9.77361 11.6626 10.2619L10.9101 11.0153C10.7293 11.1961 10.4551 11.2569 10.2209 11.1536C9.11345 10.6644 8.02178 9.92861 7.04678 8.95361Z" stroke="#595959" stroke-width="1.5" stroke-linecap="round" stroke-linejoin="round"/>
</svg>
