<svg width="20" height="20" viewBox="0 0 20 20" fill="none" xmlns="http://www.w3.org/2000/svg">
<path d="M7.12736 8.4283C7.9953 9.29624 7.9953 10.7034 7.12736 11.5714C6.25942 12.4393 4.85221 12.4393 3.98427 11.5714C3.11633 10.7034 3.11633 9.29624 3.98427 8.4283C4.85221 7.56036 6.25942 7.56036 7.12736 8.4283" stroke="#010F07" stroke-width="1.5" stroke-linecap="round" stroke-linejoin="round"/>
<path d="M16.0157 3.98421C16.8837 4.85215 16.8837 6.25936 16.0157 7.1273C15.1478 7.99524 13.7406 7.99524 12.8726 7.1273C12.0047 6.25936 12.0047 4.85215 12.8726 3.98421C13.7406 3.11627 15.1478 3.11627 16.0157 3.98421" stroke="#010F07" stroke-width="1.5" stroke-linecap="round" stroke-linejoin="round"/>
<path d="M16.0157 12.8726C16.8837 13.7406 16.8837 15.1478 16.0157 16.0157C15.1478 16.8837 13.7406 16.8837 12.8726 16.0157C12.0047 15.1478 12.0047 13.7406 12.8726 12.8726C13.7406 12.0047 15.1478 12.0047 16.0157 12.8726" stroke="#010F07" stroke-width="1.5" stroke-linecap="round" stroke-linejoin="round"/>
<path d="M7.53339 9.00793L12.4667 6.54126" stroke="#323232" stroke-width="1.5" stroke-linecap="round" stroke-linejoin="round"/>
<path d="M7.53339 10.9919L12.4667 13.4586" stroke="#323232" stroke-width="1.5" stroke-linecap="round" stroke-linejoin="round"/>
</svg>
