<svg width="128" height="40" viewBox="0 0 128 40" fill="none" xmlns="http://www.w3.org/2000/svg">
<path d="M31 14.0126C30.7129 14.4417 30.3882 14.8418 30.0259 15.213C29.6636 15.5842 29.2705 15.9231 28.8467 16.2296C28.8535 16.3249 28.8586 16.4186 28.8621 16.5105C28.8655 16.6025 28.8672 16.6961 28.8672 16.7915C28.8672 17.6496 28.7749 18.4976 28.5903 19.3353C28.4058 20.1731 28.1392 20.9836 27.7905 21.7668C27.2847 22.9042 26.6523 23.9208 25.8936 24.8164C25.1348 25.712 24.2751 26.4697 23.3147 27.0895C22.3543 27.7093 21.3066 28.1827 20.1719 28.5096C19.0371 28.8365 17.8477 29 16.6035 29C15.4277 29 14.281 28.8382 13.1633 28.5147C12.0457 28.1912 10.9912 27.7093 10 27.0691C10.335 27.11 10.6768 27.1304 11.0254 27.1304C12.0029 27.1304 12.948 26.9738 13.8606 26.6605C14.7732 26.3471 15.6123 25.8908 16.3779 25.2915C15.9199 25.2847 15.479 25.208 15.0552 25.0616C14.6313 24.9152 14.2434 24.7108 13.8913 24.4486C13.5393 24.1864 13.2317 23.8748 12.9685 23.5138C12.7053 23.1528 12.5019 22.7544 12.3584 22.3185C12.4951 22.3389 12.6301 22.356 12.7634 22.3696C12.8967 22.3832 13.0317 22.39 13.1684 22.39C13.5513 22.39 13.9272 22.3389 14.2964 22.2368C13.7905 22.1346 13.3274 21.9541 12.907 21.6953C12.4866 21.4365 12.1225 21.1215 11.8149 20.7503C11.5073 20.3791 11.2681 19.9602 11.0972 19.4937C10.9263 19.0271 10.8408 18.5385 10.8408 18.0276V17.9766C11.4424 18.3171 12.0952 18.4976 12.7993 18.518C12.4985 18.3137 12.2302 18.0804 11.9944 17.8182C11.7585 17.556 11.5586 17.2716 11.3945 16.9651C11.2305 16.6587 11.104 16.3351 11.0151 15.9946C10.9263 15.654 10.8818 15.3033 10.8818 14.9423C10.8818 14.5609 10.9297 14.188 11.0254 13.8236C11.1211 13.4592 11.2681 13.1136 11.4663 12.7867C12.0132 13.4609 12.6216 14.0654 13.2915 14.6001C13.9614 15.1347 14.6741 15.5928 15.4294 15.9742C16.1848 16.3556 16.9761 16.657 17.8032 16.8783C18.6304 17.0997 19.478 17.2308 20.3462 17.2716C20.3052 17.115 20.2761 16.9532 20.259 16.7864C20.2419 16.6195 20.2334 16.4543 20.2334 16.2909C20.2334 15.6983 20.3462 15.1415 20.5718 14.6205C20.7974 14.0995 21.105 13.6448 21.4946 13.2566C21.8843 12.8684 22.3406 12.5619 22.8635 12.3371C23.3865 12.1124 23.9453 12 24.54 12C25.1416 12 25.7141 12.1175 26.2576 12.3525C26.801 12.5874 27.2778 12.9229 27.688 13.3588C28.1733 13.2634 28.6433 13.1289 29.0979 12.9552C29.5525 12.7815 29.9917 12.5687 30.4155 12.3167C30.2583 12.8139 30.0173 13.2668 29.6926 13.6755C29.3679 14.0841 28.98 14.4213 28.5288 14.6869C29.3901 14.5847 30.2139 14.36 31 14.0126L31 14.0126Z" fill="#010F07"/>
<path fill-rule="evenodd" clip-rule="evenodd" d="M53.25 15.4545C53.25 12.0403 56.0403 9.25 59.4545 9.25H68.5455C71.9597 9.25 74.75 12.0403 74.75 15.4545V24.5455C74.75 27.9597 71.9597 30.75 68.5455 30.75H59.4545C56.0403 30.75 53.25 27.9597 53.25 24.5455V15.4545ZM59.4545 10.75C56.8688 10.75 54.75 12.8688 54.75 15.4545V24.5455C54.75 27.1312 56.8688 29.25 59.4545 29.25H68.5455C71.1312 29.25 73.25 27.1312 73.25 24.5455V15.4545C73.25 12.8688 71.1312 10.75 68.5455 10.75H59.4545ZM64 23.5C65.933 23.5 67.5 21.933 67.5 20C67.5 18.067 65.933 16.5 64 16.5C62.067 16.5 60.5 18.067 60.5 20C60.5 21.933 62.067 23.5 64 23.5ZM64 25C66.7614 25 69 22.7614 69 20C69 17.2386 66.7614 15 64 15C61.2386 15 59 17.2386 59 20C59 22.7614 61.2386 25 64 25ZM69 15C69.5523 15 70 14.5523 70 14C70 13.4477 69.5523 13 69 13C68.4477 13 68 13.4477 68 14C68 14.5523 68.4477 15 69 15Z" fill="#010F07"/>
<path d="M116.052 11H99.9476C99.7018 11.0166 99.4703 11.1218 99.296 11.296C99.1218 11.4703 99.0166 11.7018 99 11.9476V28.0524C99.0014 28.3033 99.1017 28.5435 99.2791 28.7209C99.4565 28.8983 99.6967 28.9986 99.9476 29H108.569V21.9895H106.294V19.3372H108.663V17.3476C108.612 16.8705 108.667 16.388 108.823 15.9345C108.98 15.4809 109.235 15.0676 109.57 14.7238C109.904 14.38 110.311 14.1143 110.76 13.9456C111.209 13.7769 111.69 13.7093 112.169 13.7476C113.116 13.7476 113.969 13.8419 114.252 13.8419V16.3058H112.831C111.694 16.3058 111.505 16.8744 111.505 17.6325V19.3372H114.157L113.778 22.0848H111.41V29H116.052C116.303 28.9986 116.543 28.8983 116.721 28.7209C116.898 28.5435 116.999 28.3033 117 28.0524V11.9476C116.983 11.7018 116.878 11.4703 116.704 11.296C116.53 11.1218 116.298 11.0166 116.052 11V11Z" fill="#010F07"/>
</svg>
