<svg width="16" height="16" viewBox="0 0 16 16" fill="none" xmlns="http://www.w3.org/2000/svg">
<path fill-rule="evenodd" clip-rule="evenodd" d="M5.2998 0.800781C5.5385 0.800781 5.76742 0.895605 5.9362 1.06438C6.10498 1.23317 6.1998 1.46208 6.1998 1.70078V2.60078H8.8998C9.13848 2.60078 9.36744 2.69561 9.53619 2.86438C9.70494 3.03317 9.7998 3.26208 9.7998 3.50078C9.7998 3.73948 9.70494 3.96839 9.53619 4.13718C9.36744 4.30596 9.13848 4.40078 8.8998 4.40078H7.62C7.29913 5.89817 6.7772 7.34529 6.0684 8.70278C6.3294 9.02138 6.6048 9.32918 6.891 9.62618C6.97308 9.71132 7.0376 9.81167 7.08088 9.92174C7.12414 10.0318 7.14532 10.1493 7.14318 10.2674C7.14105 10.3857 7.11566 10.5023 7.06846 10.6107C7.02124 10.7191 6.95315 10.8172 6.86805 10.8992C6.78296 10.9813 6.68253 11.0458 6.57249 11.0891C6.46247 11.1323 6.34499 11.1536 6.22678 11.1514C6.10856 11.1493 5.99192 11.1239 5.88353 11.0767C5.77513 11.0295 5.67708 10.9614 5.595 10.8763C5.4258 10.6999 5.2593 10.5199 5.0964 10.3363C4.30095 11.5182 3.36165 12.5965 2.3001 13.5466C2.12189 13.7032 1.88904 13.7831 1.65221 13.7689C1.41539 13.7548 1.19374 13.6476 1.0355 13.4708C0.877241 13.294 0.795188 13.062 0.807176 12.8251C0.819164 12.5881 0.924221 12.3654 1.0995 12.2056C2.19415 11.2259 3.14278 10.0945 3.9165 8.84588C3.41378 8.1329 2.96637 7.38253 2.5782 6.60128C2.52124 6.49506 2.4862 6.37849 2.47515 6.25847C2.46409 6.13846 2.47726 6.01744 2.51386 5.90261C2.55047 5.78778 2.60976 5.68147 2.68823 5.58999C2.7667 5.49851 2.86274 5.42372 2.97067 5.37006C3.07859 5.3164 3.19618 5.28497 3.31648 5.27761C3.43679 5.27027 3.55733 5.28715 3.67098 5.32729C3.78464 5.36741 3.88906 5.42995 3.97808 5.5112C4.0671 5.59245 4.13889 5.69076 4.1892 5.80028C4.3998 6.22328 4.6293 6.63548 4.8768 7.03508C5.2521 6.19448 5.5536 5.31338 5.7741 4.40078H1.6998C1.46111 4.40078 1.23219 4.30596 1.06341 4.13718C0.894629 3.96839 0.799805 3.73948 0.799805 3.50078C0.799805 3.26208 0.894629 3.03317 1.06341 2.86438C1.23219 2.69561 1.46111 2.60078 1.6998 2.60078H4.3998V1.70078C4.3998 1.46208 4.49463 1.23317 4.66341 1.06438C4.83219 0.895605 5.06111 0.800781 5.2998 0.800781ZM10.6998 6.20078C10.8669 6.20087 11.0306 6.24747 11.1728 6.33538C11.3149 6.42328 11.4297 6.54901 11.5044 6.69848L14.1963 12.0823C14.2026 12.0933 14.2085 12.1043 14.2143 12.1156L15.1053 13.8976C15.2121 14.1112 15.2297 14.3586 15.1542 14.5851C15.0787 14.8117 14.9162 14.999 14.7026 15.1058C14.4889 15.2127 14.2416 15.2302 14.015 15.1547C13.7884 15.0792 13.6011 14.9167 13.4943 14.7031L12.8445 13.4008H8.5569L7.9053 14.7031C7.85476 14.8125 7.78275 14.9106 7.69355 14.9917C7.60434 15.0728 7.49977 15.1351 7.38603 15.1749C7.27229 15.2148 7.1517 15.2315 7.0314 15.2238C6.91112 15.2163 6.79358 15.1846 6.68578 15.1307C6.57797 15.0768 6.48209 15.0017 6.40383 14.9101C6.32555 14.8184 6.26649 14.712 6.23015 14.5971C6.19381 14.4821 6.18092 14.3611 6.19225 14.241C6.20358 14.121 6.2389 14.0046 6.2961 13.8985L7.1871 12.1165L7.2042 12.0823L9.8952 6.69848C9.9699 6.54901 10.0847 6.42328 10.2269 6.33538C10.369 6.24747 10.5327 6.20087 10.6998 6.20078ZM9.456 11.6008H11.9436L10.6998 9.11318L9.456 11.6008Z" fill="#424244"/>
</svg>
