<svg width="41" height="40" viewBox="0 0 41 40" fill="none" xmlns="http://www.w3.org/2000/svg">
<path fill-rule="evenodd" clip-rule="evenodd" d="M20.3334 36.6667C29.5381 36.6667 37 29.2048 37 20C37 10.7953 29.5381 3.33334 20.3334 3.33334C11.1286 3.33334 3.66669 10.7953 3.66669 20C3.66669 29.2048 11.1286 36.6667 20.3334 36.6667Z" fill="#F0F0F0"/>
<path fill-rule="evenodd" clip-rule="evenodd" d="M29.1667 17.889C29.1667 24.889 25.1667 29.889 18.1667 29.889C14.1667 29.889 12.5634 27.8007 11.1667 25.889M11.1667 25.889C11.1984 25.884 14.1667 24.889 14.1667 24.889C10.8267 21.5123 10.5734 16.5107 13.1667 12.889C14.3967 15.1773 16.6934 17.2873 19.1667 17.889C19.2617 15.0007 21.2217 12.889 24.1667 12.889C26.1717 12.889 27.3517 13.654 28.1667 14.889H31.1667L29.1667 17.889" fill="#424244"/>
</svg>
